 <svg  version="1.0" xmlns="http://www.w3.org/2000/svg"  width="450.000000pt" height="559.000000pt" viewBox="0 0 450.000000 559.000000"  preserveAspectRatio="xMidYMid meet">  <g transform="translate(0.000000,559.000000) scale(0.100000,-0.100000)" fill="#202052" stroke="none"> <path d="M2155 5584 c-223 -35 -440 -200 -526 -401 -51 -120 -65 -295 -34 -426 46 -196 183 -362 370 -448 l95 -44 0 -137 0 -138 -59 0 c-66 0 -117 -26 -139 -73 l-13 -27 -440 0 c-344 0 -439 3 -439 13 0 31 -64 141 -105 182 -193 187 -455 -16 -455 -352 0 -233 135 -423 299 -423 53 0 132 41 174 91 38 44 87 136 87 162 0 8 7 18 16 21 9 3 204 6 435 6 l419 0 25 -39 c28 -41 52 -56 110 -67 l36 -6 -5 -52 c-14 -127 -32 -498 -46 -916 -33 -1014 -66 -1324 -161 -1511 -50 -100 -103 -123 -217 -95 -211 52 -521 276 -794 574 -63 68 -148 185 -148 203 0 15 74 29 158 29 l84 0 76 62 c42 34 89 73 104 86 l28 25 -108 57 c-220 116 -975 500 -978 498 -1 -2 10 -287 26 -633 16 -347 30 -656 30 -687 0 -32 4 -58 10 -58 14 0 90 112 195 284 l89 148 15 -33 c97 -228 221 -434 464 -769 75 -103 245 -261 377 -349 459 -307 979 -410 1451 -287 320 84 534 192 720 364 164 152 253 272 544 740 113 182 211 322 224 322 3 0 22 -26 40 -57 98 -165 204 -321 236 -346 20 -16 38 -27 39 -25 5 5 35 1382 31 1386 -2 2 -52 -23 -112 -56 -59 -33 -277 -151 -483 -262 -206 -111 -399 -216 -428 -232 l-53 -30 93 -73 93 -74 90 -2 c132 -2 149 -7 153 -46 8 -82 -136 -246 -433 -490 -230 -189 -422 -283 -582 -283 -166 0 -214 97 -248 501 -21 259 -50 765 -79 1394 -14 297 -28 574 -31 616 l-5 77 47 7 c56 8 97 35 119 76 l15 29 430 0 c396 -1 430 -2 435 -18 35 -107 114 -209 187 -243 185 -83 377 119 378 396 1 108 -12 169 -52 251 -85 172 -243 229 -373 133 -50 -36 -101 -108 -121 -170 l-17 -49 -438 0 c-416 0 -439 1 -444 18 -4 10 -20 31 -36 47 -25 24 -41 29 -97 34 l-68 6 -3 137 -3 136 58 22 c162 61 299 190 373 354 101 221 70 477 -82 682 -113 152 -306 252 -503 259 -49 2 -103 1 -120 -1z m196 -310 c112 -33 208 -123 250 -234 25 -67 25 -183 0 -250 -120 -315 -549 -334 -695 -30 -28 58 -31 75 -31 155 0 80 4 97 31 155 82 172 267 257 445 204z"/> </g> </svg> 